<svg width="18" height="18" viewBox="0 0 18 18" fill="none" xmlns="http://www.w3.org/2000/svg">
<g clip-path="url(#clip0_761_39)">
<path d="M15.2377 3.27741C14.0708 2.74179 12.8392 2.35985 11.574 2.14116C11.5625 2.13891 11.5505 2.14039 11.5398 2.14538C11.5292 2.15036 11.5204 2.1586 11.5147 2.16891C11.3572 2.45016 11.1817 2.81691 11.0587 3.10641C9.69481 2.89925 8.30742 2.89925 6.94349 3.10641C6.80661 2.78564 6.65212 2.47266 6.48074 2.16891C6.47483 2.15884 6.46601 2.15079 6.45543 2.14584C6.44485 2.14088 6.43302 2.13925 6.42149 2.14116C5.15613 2.3594 3.92454 2.74135 2.75774 3.27741C2.74787 3.28155 2.73949 3.28862 2.73374 3.29766C0.399744 6.78441 -0.240006 10.1849 0.0742443 13.5427C0.0750076 13.551 0.0774633 13.5591 0.081461 13.5664C0.0854588 13.5738 0.0909145 13.5802 0.0974942 13.5854C1.45619 14.5921 2.97608 15.3605 4.59224 15.8579C4.60364 15.8612 4.61576 15.861 4.62701 15.8572C4.63826 15.8535 4.64811 15.8464 4.65524 15.8369C5.00269 15.3648 5.31025 14.8646 5.57474 14.3414C5.57843 14.3342 5.58056 14.3264 5.58099 14.3183C5.58142 14.3103 5.58014 14.3023 5.57723 14.2948C5.57432 14.2872 5.56986 14.2804 5.56413 14.2748C5.5584 14.2691 5.55154 14.2647 5.54399 14.2619C5.05906 14.0763 4.58959 13.8526 4.13999 13.5929C4.13175 13.5881 4.12482 13.5814 4.1198 13.5733C4.11479 13.5652 4.11186 13.556 4.11126 13.5465C4.11067 13.537 4.11243 13.5275 4.1164 13.5189C4.12037 13.5102 4.12641 13.5027 4.13399 13.4969C4.22867 13.4261 4.3217 13.3531 4.41299 13.2779C4.42098 13.2714 4.43061 13.2673 4.44081 13.266C4.451 13.2647 4.46137 13.2662 4.47074 13.2704C7.41674 14.6152 10.6057 14.6152 13.5172 13.2704C13.5267 13.266 13.5372 13.2644 13.5476 13.2657C13.5579 13.2671 13.5677 13.2713 13.5757 13.2779C13.6657 13.3514 13.7602 13.4264 13.8555 13.4969C13.863 13.5026 13.869 13.51 13.873 13.5185C13.877 13.527 13.8788 13.5363 13.8784 13.5457C13.8779 13.5551 13.8752 13.5642 13.8704 13.5723C13.8657 13.5804 13.859 13.5872 13.851 13.5922C13.4024 13.8543 12.9325 14.0781 12.4462 14.2612C12.4387 14.2641 12.4318 14.2685 12.4261 14.2743C12.4203 14.28 12.4159 14.2869 12.413 14.2944C12.4101 14.302 12.4088 14.3101 12.4092 14.3182C12.4097 14.3263 12.4118 14.3342 12.4155 14.3414C12.6855 14.8649 12.9945 15.3629 13.3342 15.8362C13.3412 15.8458 13.3511 15.853 13.3624 15.8568C13.3737 15.8605 13.3859 15.8607 13.3972 15.8572C15.0161 15.3613 16.5385 14.5928 17.8987 13.5847C17.9054 13.58 17.9109 13.5739 17.9151 13.567C17.9192 13.56 17.9218 13.5522 17.9227 13.5442C18.2977 9.66141 17.2942 6.28866 15.261 3.29916C15.2562 3.28908 15.248 3.28108 15.2377 3.27666V3.27741ZM6.01499 11.4974C5.12774 11.4974 4.39724 10.6837 4.39724 9.68316C4.39724 8.68341 5.11424 7.86891 6.01499 7.86891C6.92249 7.86891 7.64699 8.69091 7.63274 9.68391C7.63274 10.6837 6.91574 11.4974 6.01499 11.4974V11.4974ZM11.9962 11.4974C11.109 11.4974 10.3785 10.6837 10.3785 9.68316C10.3785 8.68341 11.0947 7.86891 11.9962 7.86891C12.9037 7.86891 13.6282 8.69091 13.614 9.68391C13.614 10.6837 12.9045 11.4974 11.9962 11.4974V11.4974Z" fill="#252525"/>
</g>
<defs>
<clipPath id="clip0_761_39">
<rect width="18" height="18" fill="white"/>
</clipPath>
</defs>
</svg>
