<svg width="18" height="18" viewBox="0 0 18 18" fill="none" xmlns="http://www.w3.org/2000/svg">
<g clip-path="url(#clip0_761_43)">
<path d="M18.0001 9.05527C18.0001 4.05352 13.9703 -0.000976562 9.00005 -0.000976562C4.02755 0.000148438 -0.00219727 4.05352 -0.00219727 9.0564C-0.00219727 13.5755 3.28955 17.3218 7.59155 18.0013V11.6731H5.3078V9.0564H7.5938V7.05952C7.5938 4.7904 8.93818 3.53715 10.9936 3.53715C11.9791 3.53715 13.0084 3.71377 13.0084 3.71377V5.94127H11.8733C10.7562 5.94127 10.4074 6.6399 10.4074 7.35652V9.05527H12.9027L12.5044 11.672H10.4063V18.0001C14.7083 17.3206 18.0001 13.5744 18.0001 9.05527Z" fill="#252525"/>
</g>
<defs>
<clipPath id="clip0_761_43">
<rect width="18" height="18" fill="white"/>
</clipPath>
</defs>
</svg>
