<svg width="17" height="16" viewBox="0 0 17 16" fill="none" xmlns="http://www.w3.org/2000/svg">
<g clip-path="url(#clip0_761_25)">
<path d="M8.5 0C3.71875 0 0 3.6129 0 8.25806C0 13.6774 5.04688 16 5.84375 16C6.375 16 6.375 15.7419 6.375 15.4839V14.1935C4.51562 14.7097 3.71875 13.6774 3.45312 12.9032C3.45312 12.9032 3.45312 12.6452 2.92188 12.129C2.65625 11.871 1.59375 11.3548 2.65625 11.3548C3.45312 11.3548 3.98438 12.3871 3.98438 12.3871C4.78125 13.4194 5.84375 13.1613 6.375 12.9032C6.375 12.3871 6.90625 11.871 6.90625 11.871C4.78125 11.6129 3.1875 10.8387 3.1875 8C3.1875 6.96774 3.45312 6.19355 3.98438 5.67742C3.98438 5.67742 3.45312 4.64516 3.98438 3.35484C3.98438 3.35484 5.3125 3.35484 6.375 4.3871C7.17188 3.87097 9.82812 3.87097 10.625 4.3871C11.6875 3.35484 13.0156 3.35484 13.0156 3.35484C13.5469 5.16129 13.0156 5.67742 13.0156 5.67742C13.5469 6.19355 13.8125 6.96774 13.8125 8C13.8125 10.8387 11.9531 11.6129 10.0938 11.871C10.3594 12.129 10.625 12.6452 10.625 13.4194V15.4839C10.625 15.7419 10.625 16 11.1562 16C11.9531 16 17 13.6774 17 8.25806C17 3.6129 13.2812 0 8.5 0Z" fill="#222222"/>
</g>
<defs>
<clipPath id="clip0_761_25">
<rect width="17" height="16" fill="white"/>
</clipPath>
</defs>
</svg>
