<svg width="16" height="16" viewBox="0 0 16 16" fill="none" xmlns="http://www.w3.org/2000/svg">
<g clip-path="url(#clip0_761_16)">
<path d="M15.9924 8.14945C15.9924 7.49394 15.938 7.01559 15.8202 6.51953H8.15942V9.47819H12.6561C12.5655 10.2135 12.0759 11.3208 10.988 12.0648L10.9727 12.1639L13.3949 13.9973L13.5627 14.0137C15.1039 12.6229 15.9924 10.5766 15.9924 8.14945Z" fill="#4285F4"/>
<path d="M8.15942 15.945C10.3624 15.945 12.2119 15.2363 13.5627 14.0139L10.988 12.065C10.299 12.5345 9.37424 12.8623 8.15942 12.8623C6.00174 12.8623 4.17042 11.4716 3.51761 9.54932L3.42192 9.55726L0.903299 11.4618L0.870361 11.5513C2.21211 14.1556 4.96817 15.945 8.15942 15.945Z" fill="#34A853"/>
<path d="M3.51756 9.54936C3.34531 9.0533 3.24562 8.52176 3.24562 7.97257C3.24562 7.42332 3.34531 6.89184 3.5085 6.39577L3.50394 6.29013L0.95375 4.35498L0.870312 4.39376C0.317313 5.47449 0 6.68811 0 7.97257C0 9.25703 0.317313 10.4706 0.870312 11.5513L3.51756 9.54936Z" fill="#FBBC05"/>
<path d="M8.15942 3.08269C9.69155 3.08269 10.725 3.72934 11.3144 4.26974L13.6171 2.07286C12.2029 0.788397 10.3624 0 8.15942 0C4.96817 0 2.21211 1.78937 0.870361 4.39371L3.50855 6.39573C4.17042 4.47347 6.00174 3.08269 8.15942 3.08269Z" fill="#EB4335"/>
</g>
<defs>
<clipPath id="clip0_761_16">
<rect width="16" height="16" fill="white"/>
</clipPath>
</defs>
</svg>
