<svg width="18" height="18" viewBox="0 0 18 18" fill="none" xmlns="http://www.w3.org/2000/svg">
<g clip-path="url(#clip0_761_45)">
<path d="M9.39372 0.015C10.3762 0 11.3512 0.0075 12.3262 0C12.3862 1.1475 12.7987 2.3175 13.6387 3.1275C14.4787 3.96 15.6637 4.3425 16.8187 4.47V7.4925C15.7387 7.455 14.6512 7.23 13.6687 6.765C13.2412 6.57 12.8437 6.3225 12.4537 6.0675C12.4462 8.2575 12.4612 10.4475 12.4387 12.63C12.3787 13.68 12.0337 14.7225 11.4262 15.585C10.4437 17.025 8.74122 17.9625 6.99372 17.9925C5.92122 18.0525 4.84872 17.76 3.93372 17.22C2.41872 16.3275 1.35372 14.6925 1.19622 12.9375C1.18122 12.5625 1.17372 12.1875 1.18872 11.82C1.32372 10.395 2.02872 9.03 3.12372 8.1C4.36872 7.02 6.10872 6.5025 7.73622 6.81C7.75122 7.92 7.70622 9.03 7.70622 10.14C6.96372 9.9 6.09372 9.9675 5.44122 10.4175C4.96872 10.725 4.60872 11.1975 4.42122 11.73C4.26372 12.1125 4.30872 12.5325 4.31622 12.9375C4.49622 14.1675 5.68122 15.2025 6.94122 15.09C7.78122 15.0825 8.58372 14.595 9.01872 13.8825C9.16122 13.635 9.31872 13.38 9.32622 13.0875C9.40122 11.745 9.37122 10.41 9.37872 9.0675C9.38622 6.045 9.37122 3.03 9.39372 0.015V0.015Z" fill="#252525"/>
</g>
<defs>
<clipPath id="clip0_761_45">
<rect width="18" height="18" fill="white"/>
</clipPath>
</defs>
</svg>
